<svg width="285" height="180" viewBox="0 0 285 180" fill="none" xmlns="http://www.w3.org/2000/svg">
<path opacity="0.07" d="M262.5 0H22.5C9.75 0 0 9.75 0 22.5V157.5C0 170.25 10.5 180 22.5 180H262.5C275.25 180 285 170.25 285 157.5V22.5C285 9.75 274.5 0 262.5 0Z" fill="black"/>
<path d="M262.5 7.5C270.75 7.5 277.5 14.25 277.5 22.5V157.5C277.5 165.75 270.75 172.5 262.5 172.5H22.5C14.25 172.5 7.5 165.75 7.5 157.5V22.5C7.5 14.25 14.25 7.5 22.5 7.5H262.5Z" fill="white"/>
<path d="M91.955 55.2981H95.3251V85.5399H91.955V55.2981ZM83.1463 55.2981H86.5163V85.5399H83.1463V55.2981ZM118.079 55.2981H127.231V85.5399H118.079V55.2981ZM164.85 55.2981H169.424V85.5399H164.852V55.2981H164.85ZM176.04 55.2981H180.613V85.5399H176.04V55.2981ZM194.353 55.2981H200.232V85.5399H194.351V55.2981H194.353ZM187.733 55.2981H189.634V85.5399H187.733V55.2981ZM156.974 55.2981H158.875V85.5399H156.974V55.2981ZM152.906 55.2981H154.807V85.5399H152.906V55.2981ZM139.687 55.2981H141.588V85.5399H139.685V55.2981H139.687ZM109.307 55.2981H111.209V85.5399H109.307V55.2981ZM103.707 55.2981H107.237V85.5399H103.707V55.2981ZM83.1442 124.222V93.1181H94.8497C97.2325 93.1181 99.1399 93.4312 100.582 94.0595C102.022 94.6899 103.144 95.6577 103.958 96.9692C104.776 98.2706 105.186 99.639 105.186 101.077C105.186 102.398 104.825 103.653 104.103 104.824C103.309 106.065 102.174 107.053 100.833 107.671C102.72 108.224 104.175 109.165 105.18 110.495C106.196 111.821 106.706 113.39 106.706 115.2C106.706 116.664 106.394 118.018 105.778 119.267C105.256 120.398 104.472 121.39 103.491 122.162C102.581 122.833 101.445 123.348 100.078 123.699C98.4259 124.076 96.7347 124.252 95.0415 124.222H83.1401H83.1463H83.1442ZM87.2854 106.192H94.0317C95.8595 106.192 97.1733 106.068 97.9648 105.833C98.9081 105.593 99.7435 105.046 100.337 104.277C100.892 103.48 101.174 102.524 101.137 101.554C101.159 100.592 100.9 99.6449 100.39 98.8277C99.9052 98.0446 99.1478 97.467 98.2627 97.2051C97.3385 96.9164 95.7596 96.772 93.5197 96.772H87.2854V106.199V106.192ZM87.2854 120.572H95.0578C96.3899 120.572 97.3283 120.519 97.873 120.42C98.8155 120.251 99.6152 119.968 100.256 119.574C100.925 119.143 101.467 118.543 101.831 117.835C102.245 117.077 102.447 116.198 102.447 115.21C102.447 114.043 102.149 113.039 101.547 112.174C100.946 111.311 100.071 110.674 99.0623 110.365C98.0077 110.019 96.4858 109.842 94.5029 109.842H87.2854V120.572ZM110.458 112.947C110.458 108.785 111.619 105.702 113.946 103.695C115.888 102.03 118.261 101.199 121.054 101.199C124.154 101.199 126.696 102.213 128.671 104.238C130.639 106.26 131.627 109.057 131.627 112.632C131.627 115.527 131.192 117.803 130.321 119.46C129.467 121.099 128.139 122.445 126.509 123.323C124.842 124.243 122.965 124.716 121.06 124.698C117.898 124.698 115.339 123.689 113.385 121.672C111.431 119.651 110.458 116.741 110.458 112.949V112.947ZM114.377 112.957C114.377 115.839 115.009 118 116.274 119.425C117.545 120.861 119.134 121.577 121.06 121.577C122.961 121.577 124.544 120.861 125.815 119.421C127.078 117.98 127.712 115.786 127.712 112.837C127.712 110.058 127.072 107.949 125.801 106.524C125.22 105.837 124.494 105.288 123.673 104.915C122.853 104.543 121.961 104.358 121.06 104.373C119.134 104.373 117.545 105.084 116.274 106.51C115.011 107.935 114.377 110.088 114.377 112.963V112.957ZM136.031 124.222V93.1181H139.864V124.222H136.031ZM161.215 116.922L165.179 117.447C164.563 119.743 163.406 121.528 161.721 122.795C160.036 124.063 157.89 124.702 155.264 124.702C151.968 124.702 149.359 123.689 147.423 121.662C145.493 119.641 144.526 116.798 144.526 113.14C144.526 109.362 145.497 106.424 147.451 104.336C149.405 102.242 151.939 101.199 155.054 101.199C158.067 101.199 160.528 102.221 162.439 104.269C164.351 106.318 165.307 109.198 165.307 112.911L165.289 113.923H148.453C148.596 116.392 149.295 118.287 150.556 119.598C151.158 120.238 151.889 120.744 152.701 121.084C153.513 121.423 154.388 121.587 155.268 121.566C156.672 121.566 157.869 121.196 158.857 120.458C159.854 119.718 160.632 118.537 161.215 116.92V116.924V116.922ZM148.669 110.798H161.26C161.091 108.901 160.605 107.48 159.816 106.534C159.252 105.826 158.531 105.258 157.71 104.874C156.889 104.491 155.989 104.303 155.083 104.326C153.324 104.326 151.851 104.911 150.654 106.083C149.465 107.254 148.8 108.828 148.669 110.798ZM178.345 120.812L178.871 124.187C177.924 124.399 176.957 124.514 175.987 124.529C174.599 124.529 173.526 124.313 172.755 123.872C171.994 123.429 171.456 122.858 171.144 122.144C170.83 121.428 170.674 119.919 170.674 117.626V104.637H167.845V101.685H170.677V96.1091L174.508 93.8155V101.685H178.341V104.637H174.508V117.845C174.508 118.941 174.575 119.641 174.712 119.954C174.842 120.266 175.071 120.528 175.364 120.698C175.768 120.902 176.219 120.997 176.67 120.971L178.341 120.818L178.345 120.812ZM180.691 112.949C180.691 108.785 181.85 105.702 184.179 103.698C186.121 102.03 188.494 101.199 191.287 101.199C194.387 101.199 196.929 102.213 198.902 104.238C200.873 106.26 201.86 109.057 201.86 112.632C201.86 115.527 201.425 117.803 200.554 119.46C199.7 121.1 198.371 122.446 196.74 123.323C195.073 124.242 193.197 124.716 191.293 124.698C188.129 124.698 185.573 123.689 183.616 121.672C181.662 119.651 180.691 116.741 180.691 112.949ZM184.608 112.957C184.608 115.839 185.24 118 186.505 119.425C187.778 120.861 189.365 121.577 191.291 121.577C193.194 121.577 194.777 120.861 196.048 119.421C197.309 117.98 197.945 115.786 197.945 112.837C197.945 110.058 197.305 107.949 196.034 106.524C195.453 105.837 194.726 105.287 193.906 104.915C193.085 104.543 192.192 104.358 191.291 104.373C189.365 104.373 187.778 105.084 186.505 106.51C185.244 107.935 184.608 110.088 184.608 112.963V112.957Z" fill="#222222"/>
</svg>
