<?xml version="1.0" encoding="utf-8"?>
<!-- Svg Vector Icons : http://www.onlinewebfonts.com/icon -->
<!DOCTYPE svg PUBLIC "-//W3C//DTD SVG 1.1//EN" "http://www.w3.org/Graphics/SVG/1.1/DTD/svg11.dtd">
<svg version="1.1" xmlns="http://www.w3.org/2000/svg" xmlns:xlink="http://www.w3.org/1999/xlink" x="0px" y="0px" viewBox="0 0 1000 1000" enable-background="new 0 0 1000 1000" xml:space="preserve">
<metadata> Svg Vector Icons : http://www.onlinewebfonts.com/icon </metadata>
<g><path d="M936.8,589.1c-31.9-11.5-67,4.8-78.5,36.6c-0.4,1.2-1,2.1-1.3,3.3l-1.2-0.4c-32.5,86.5-96.2,157.8-177.6,199.3c-0.7,0.4-1.3,0.8-2.1,1.2c-14.8,7.4-30.3,13.7-46.2,19.1c-3.6,1.2-7,2.1-10.6,3.2c-14.4,4.3-29.1,7.9-44.2,10.5c-1.9,0.3-3.8,0.9-5.7,1.2c-16.8,2.6-34.2,3.8-51.8,4c-1.7,0-3.5,0-5.2,0c-2.3,0-4.5,0.1-6.7,0c-7.3-0.2-14.6-0.6-21.7-1.2c-5.1-0.4-10.2-0.9-15.3-1.4c-0.2-0.1-0.4-0.1-0.6-0.1c-6.3-0.8-12.5-1.8-18.6-2.9c-6.4-1.2-12.9-2.4-19.4-3.9c-4.9-1.2-9.7-2.4-14.6-3.7c-7.4-2.1-14.8-4.3-22.2-6.9c-3.9-1.3-7.7-2.8-11.5-4.2c-1.3-0.6-2.6-1.1-3.9-1.6c-6.2-2.5-12.4-5-18.3-7.7c-3.6-1.6-7-3.4-10.5-5.1c-3.1-1.5-6-3.1-9-4.7c-3.8-2-7.5-4-11.2-6.1c-4-2.4-8-4.8-11.8-7.2c-3.2-2-6.3-4-9.4-6.1c-2.6-1.7-5.1-3.5-7.6-5.2c-4.5-3.2-8.9-6.5-13.3-9.9c-2.6-2-5.1-4-7.5-6.1c-2.1-1.8-4.3-3.6-6.4-5.4c-4.7-4-9.3-8.3-13.8-12.5c-1.8-1.7-3.6-3.6-5.4-5.3c-2.2-2.2-4.3-4.4-6.5-6.7c-4.3-4.5-8.5-9.1-12.6-13.9c-1.3-1.5-2.7-3.2-4-4.8c-2.5-2.9-4.8-5.9-7.2-8.9c-3.5-4.4-6.9-8.9-10.2-13.6c-1.3-1.8-2.6-3.8-3.9-5.6c-2.4-3.7-4.8-7.3-7.2-11c-2.6-4-5.1-8.1-7.5-12.3c-1.6-2.8-3.1-5.6-4.6-8.4c-2-3.7-4-7.4-5.9-11.2c-1.9-3.8-3.7-7.5-5.5-11.4c-2-4.3-3.8-8.8-5.6-13.3c-1.1-2.6-2.3-5.3-3.3-8c-1.6-4.2-3.1-8.4-4.6-12.6c-2.1-6.1-4-12.4-5.9-18.7c-0.1-0.5-0.2-1-0.4-1.5c-1.5-5.3-2.9-10.7-4.2-16c-1.4-6-2.5-11.9-3.6-17.9c-1.2-6.6-2.2-13.1-3.1-19.7c-0.2-2-0.4-3.9-0.6-5.8c-0.3-3.1-0.7-6.1-0.9-9.1c-0.6-7.6-1-15.3-1.2-23c0-2.3,0-4.5,0-6.7s0-4.5,0-6.7c0.1-7.7,0.6-15.4,1.2-23c0.2-2.9,0.6-5.9,0.9-8.9c0.2-2,0.4-4,0.6-5.9c0.8-6.6,1.8-13.2,3-19.7c1-6,2.2-11.9,3.6-17.9c1.3-5.5,2.7-10.7,4.2-16c0.2-0.7,0.4-1.3,0.6-2c1.8-6.2,3.6-12.4,5.7-18.5c1.4-4.1,3-8.3,4.5-12.4c1.1-2.9,2.3-5.7,3.5-8.5c1.8-4.3,3.6-8.6,5.5-12.9c1.7-3.8,3.6-7.5,5.4-11.2c2-3.9,4-7.8,6.1-11.6c1.5-2.7,2.9-5.5,4.5-8.1c2.4-4.1,4.9-8.1,7.4-12.1c2.4-3.8,4.8-7.5,7.4-11.2c1.3-1.8,2.5-3.7,3.8-5.5c3.2-4.6,6.6-9.1,10.1-13.5c2.4-3.1,4.8-6.1,7.3-9.1c1.2-1.6,2.6-3.2,3.9-4.7c4-4.7,8.3-9.3,12.6-13.8c2.1-2.3,4.3-4.5,6.6-6.8c1.8-1.8,3.5-3.5,5.3-5.1c4.5-4.3,9.1-8.5,13.8-12.5c2.1-1.8,4.3-3.7,6.5-5.5c2.5-2,5-4,7.5-5.9c4.3-3.4,8.8-6.7,13.2-9.9c2.6-1.8,5.1-3.6,7.8-5.3c3.1-2.1,6.2-4.1,9.2-6.1c3.9-2.5,7.7-4.8,11.7-7.1c3.7-2.1,7.5-4.2,11.3-6.2c2.9-1.5,5.9-3.2,8.9-4.7c3.5-1.8,7-3.4,10.5-5.1c6-2.8,12.1-5.3,18.3-7.7c1.3-0.5,2.6-1.1,3.9-1.5c3.8-1.5,7.7-2.9,11.5-4.2c7.4-2.6,14.8-4.9,22.2-6.9c4.8-1.3,9.7-2.6,14.6-3.7c6.4-1.5,12.9-2.8,19.4-3.9c6.2-1.1,12.4-2.1,18.6-2.8c0.2,0,0.4,0,0.6-0.1c5.1-0.6,10.2-1.1,15.3-1.5c7.2-0.6,14.5-1,21.7-1.1c2.3,0,4.5,0,6.7,0c1.7,0,3.5,0,5.2,0c17.6,0.2,35,1.4,51.8,4c1.9,0.2,3.7,0.8,5.6,1.1c15.1,2.6,29.9,6.2,44.3,10.7c3.5,1,7,2,10.5,3.2c16,5.4,31.5,11.6,46.4,19.1c0.6,0.3,1.2,0.7,1.8,1c81.5,41.5,145.3,112.8,177.7,199.4l1.2-0.4c0.4,1.2,1,2.2,1.3,3.3c11.5,31.8,46.7,48.1,78.5,36.6c31.8-11.6,48.1-46.7,36.6-78.5C929.4,211.8,842.8,119.3,737,64.8c-2.9-1.5-5.7-3.1-8.6-4.5c-15.3-7.5-30.9-14.2-46.8-20.1c-0.4-0.2-0.7-0.5-1.1-0.7c-0.7-0.2-1.3-0.4-2.1-0.7c-3.4-1.2-6.9-2.2-10.4-3.3c-4.3-1.5-8.7-2.6-13-3.9c-3.9-1.2-7.7-2.4-11.6-3.5c-3.8-1.1-7.6-2.5-11.5-3.5c-12.2-3.1-24.6-5.3-37-7.4c-2.2-0.4-4.3-1-6.5-1.3c-1.2-0.2-2.4-0.5-3.7-0.7c-5.7-0.9-11.3-1.1-17-1.8c-10.2-1.2-20.4-2.5-30.7-3c-6.1-0.3-12.1,0-18.2-0.1c-2,0-3.9-0.4-5.8-0.4c-3,0-5.9,0.4-8.9,0.4c-5.1,0.1-10.1-0.2-15.2,0.1c-5.3,0.3-10.4,1.1-15.7,1.5c-6.6,0.6-13.2,1.2-19.8,2c-4.1,0.5-8.1,0.6-12.3,1.2c-4.7,0.7-9.2,2-13.8,2.8c-7.9,1.4-15.7,2.9-23.5,4.7c-3.2,0.7-6.6,1.2-9.7,2c-3.6,0.9-7.2,2.3-10.8,3.2c-0.2,0.1-0.4,0.1-0.6,0.2c-8.8,2.4-17.4,5-25.9,7.8c-3.1,1-6.2,1.9-9.3,3.1c-0.7,0.2-1.3,0.4-2,0.6c-3.1,1.1-5.9,2.6-8.9,3.7c-8.1,3.2-16.2,6.4-24,10c-3.2,1.4-6.4,2.8-9.6,4.2c-4.2,2-8.3,4.3-12.5,6.4c-6.5,3.4-13,6.8-19.4,10.4c-3.4,1.9-6.7,3.7-10,5.7c-4.8,2.9-9.4,5.9-14.1,8.9c-5,3.2-9.9,6.5-14.7,9.9c-3.7,2.6-7.4,5-10.9,7.7c-4.8,3.6-9.5,7.4-14.1,11c-3.8,3.1-7.6,6.2-11.3,9.4c-3.9,3.4-7.9,6.7-11.7,10.1c-4.3,3.9-8.5,8-12.7,12.1c-3.2,3.1-6.4,6.3-9.6,9.6c-4,4.1-8,8.2-11.9,12.4c-3.6,3.9-6.9,8-10.3,12c-3.1,3.7-6.2,7.4-9.2,11.2c-3.7,4.6-7.4,9.2-11,14c-2.8,3.7-5.4,7.5-8,11.3c-3.3,4.8-6.5,9.6-9.7,14.5c-2.9,4.6-6,9.1-8.8,13.8c-2.1,3.5-4,7.1-6.1,10.7c-3.6,6.2-6.9,12.5-10.1,18.9c-2.1,4.1-4.3,8.1-6.3,12.3c-1.7,3.4-3.1,6.9-4.6,10.4c-3.5,7.7-6.6,15.6-9.7,23.5c-1.2,3-2.6,5.8-3.7,8.9c-0.2,0.5-0.2,1-0.5,1.6c-1.2,3.4-2.2,6.9-3.4,10.3c-2.7,8.1-5.1,16.2-7.4,24.4c-0.6,2.3-1.4,4.5-2.1,6.9c-0.4,1.7-1,3.3-1.5,5c-0.9,3.6-1.4,7.2-2.2,10.8c-1.7,7.3-3.1,14.6-4.4,22.1c-0.9,5-2.1,9.9-2.9,14.9c-0.6,3.7-0.6,7.5-1.1,11.2c-0.1,0.4-0.1,0.9-0.1,1.2c-0.7,6.2-1.3,12.5-1.9,18.8c-0.4,5.5-1.3,11-1.5,16.5c-0.2,5.2,0,10.4-0.1,15.6c-0.1,2.8-0.4,5.5-0.4,8.3c0,2.8,0.4,5.5,0.4,8.3c0.1,5.2-0.2,10.4,0.1,15.6c0.2,5.5,1.1,11,1.5,16.5c0.6,6.3,1.2,12.6,1.9,18.8c0.1,0.4,0.1,0.9,0.1,1.3c0.5,3.7,0.6,7.3,1.1,11.1c0.7,5,2,9.9,2.9,14.9c1.3,7.4,2.8,14.8,4.4,22c0.8,3.6,1.3,7.2,2.2,10.7c0.4,1.7,1.2,3.5,1.6,5.3c0.6,2.2,1.3,4.4,2,6.6c2.3,8.3,4.7,16.4,7.4,24.4c1.2,3.4,2.1,6.9,3.4,10.3c0.2,0.6,0.3,1.1,0.5,1.6c1.1,3.1,2.6,5.9,3.7,8.9c3.1,8,6.2,15.8,9.7,23.6c1.5,3.4,3,6.9,4.6,10.3c2,4.2,4.2,8.3,6.3,12.3c3.2,6.4,6.6,12.7,10.1,18.9c2,3.6,3.9,7.2,6.1,10.7c2.8,4.8,5.9,9.2,8.8,13.9c3.2,4.9,6.4,9.7,9.7,14.5c2.6,3.8,5.2,7.6,8,11.3c3.6,4.8,7.2,9.4,11,14c3,3.8,6.1,7.5,9.2,11.2c3.4,4,6.7,8.1,10.3,12c3.9,4.2,7.9,8.3,11.9,12.4c3.2,3.2,6.4,6.4,9.6,9.6c4.2,4,8.3,8.1,12.7,12.1c3.8,3.5,7.8,6.7,11.7,10.1c3.7,3.2,7.5,6.3,11.3,9.3c4.7,3.7,9.3,7.5,14.1,11.1c3.6,2.6,7.3,5.1,10.9,7.7c4.8,3.4,9.8,6.7,14.8,9.9c4.7,3,9.2,6.1,14,8.9c3.3,2,6.7,3.8,10.1,5.8c6.4,3.7,12.8,7,19.4,10.4c4.2,2.1,8.3,4.3,12.5,6.4c3.2,1.5,6.4,2.9,9.6,4.2c7.9,3.6,15.9,6.8,24.1,10c3,1.2,5.8,2.6,8.9,3.7c0.7,0.2,1.3,0.4,2,0.6c3.1,1.2,6.2,2,9.3,3.1c8.5,2.9,17.1,5.4,25.9,7.8c0.2,0.1,0.4,0.1,0.6,0.2c3.6,1,7.2,2.4,10.8,3.3c3.2,0.8,6.5,1.3,9.7,2c7.8,1.8,15.6,3.3,23.5,4.7c4.7,0.9,9.2,2,13.9,2.8c4.1,0.6,8.2,0.7,12.3,1.3c6.6,0.8,13.2,1.4,19.8,1.9c5.2,0.5,10.4,1.3,15.6,1.5c5.1,0.3,10.2,0,15.3,0.1c3-0.1,5.9,0.3,8.8,0.3c2,0,3.8-0.4,5.8-0.5c6.1-0.1,12.1,0.3,18.1,0c11.2-0.6,22.2-2,33.3-3.3c4.8-0.6,9.6-0.7,14.5-1.4c1.3-0.2,2.6-0.6,3.9-0.7c2-0.4,4-0.9,6.1-1.3c12.6-2.1,25.1-4.4,37.4-7.5c3.1-0.8,6.3-2,9.4-2.8c4.6-1.3,9.1-2.8,13.7-4.1c4.2-1.3,8.6-2.4,12.7-3.8c3.6-1.2,7.1-2.2,10.7-3.5c0.7-0.2,1.3-0.4,2-0.6c0.4-0.1,0.6-0.5,1-0.6c16-5.9,31.7-12.7,47-20.3c2.8-1.3,5.4-2.9,8.1-4.2c105.9-54.5,192.7-146.9,236.6-267.7C984.9,635.8,968.6,600.7,936.8,589.1z"/></g>
</svg>